<?xml version="1.0" standalone="no"?>
<!DOCTYPE svg PUBLIC "-//W3C//DTD SVG 20010904//EN"
 "http://www.w3.org/TR/2001/REC-SVG-20010904/DTD/svg10.dtd">
<svg version="1.0" xmlns="http://www.w3.org/2000/svg"
 width="512.000000pt" height="512.000000pt" viewBox="0 0 512.000000 512.000000"
 preserveAspectRatio="xMidYMid meet">
<metadata>
Created by potrace 1.14, written by Peter Selinger 2001-2017
</metadata>
<g transform="translate(0.000000,512.000000) scale(0.100000,-0.100000)"
fill="#000000" stroke="none">
<path d="M871 4856 c-22 -24 -44 -92 -56 -175 -3 -23 -10 -53 -14 -65 -5 -11
-8 -25 -7 -31 0 -6 -37 -11 -94 -11 -52 -1 -107 -5 -121 -9 -37 -9 -79 -56
-88 -96 -12 -60 -6 -292 9 -319 25 -46 84 -78 143 -75 40 1 51 -7 53 -40 0
-11 4 -40 8 -65 4 -25 9 -67 12 -95 3 -27 8 -52 10 -54 2 -2 -10 -19 -26 -38
-17 -18 -30 -41 -31 -51 -2 -24 2 -72 6 -102 3 -14 9 -56 14 -95 6 -38 13 -88
16 -110 6 -43 12 -84 20 -142 3 -21 10 -67 16 -103 5 -36 11 -81 14 -100 2
-19 6 -53 9 -75 7 -46 23 -153 31 -207 6 -48 13 -92 20 -141 6 -46 16 -121 20
-162 2 -16 4 -30 5 -30 3 0 14 -74 26 -180 3 -22 7 -51 10 -65 2 -14 9 -59 15
-100 5 -41 12 -86 14 -100 2 -14 7 -47 11 -75 10 -77 26 -101 92 -141 4 -2 9
-31 17 -99 4 -33 9 -69 11 -80 3 -11 7 -36 10 -55 12 -80 49 -136 113 -167 33
-16 84 -18 686 -19 358 -1 655 -2 661 -3 6 -1 23 -18 37 -39 32 -49 80 -97
129 -129 35 -24 38 -29 38 -72 0 -183 97 -359 246 -447 84 -50 151 -66 283
-70 l125 -3 24 -33 c78 -102 230 -221 357 -279 134 -60 198 -71 399 -67 165 3
189 6 268 32 143 45 218 113 222 197 0 21 4 39 7 39 10 0 -5 60 -26 103 -23
49 -65 83 -145 119 -36 16 -79 40 -97 54 -17 13 -34 24 -37 24 -9 0 -110 104
-128 132 -77 119 -120 256 -142 453 -3 28 -10 64 -15 82 -15 51 -63 153 -72
153 -5 0 -9 6 -9 13 0 6 -16 30 -36 51 -21 24 -33 46 -30 55 3 9 17 48 31 87
35 102 35 182 -1 315 -18 65 -18 68 1 110 11 24 22 46 26 49 9 7 90 160 84
160 -2 0 0 11 5 26 11 29 17 58 24 134 7 65 10 81 26 140 7 25 14 56 17 70 2
13 9 30 15 37 6 7 8 13 4 13 -8 0 28 71 63 124 58 89 179 189 262 218 54 18
102 52 134 94 17 22 31 42 31 47 1 4 2 8 4 10 9 12 14 92 7 122 -23 95 -88
151 -222 191 -108 32 -132 36 -275 41 -77 3 -145 1 -177 -7 -29 -6 -56 -12
-60 -12 -23 -1 -173 -62 -228 -93 -105 -58 -208 -146 -286 -242 l-24 -31 -132
-4 c-129 -5 -131 -4 -127 16 3 12 6 35 8 51 3 17 7 47 10 68 3 20 8 52 10 70
3 17 8 55 12 82 13 92 10 108 -26 148 -16 19 -28 36 -26 38 2 2 7 29 11 59 4
30 9 66 11 80 2 14 6 42 8 64 3 21 8 41 11 44 3 4 28 7 55 8 45 1 85 18 116
48 23 24 30 77 29 213 -1 130 -3 144 -25 175 -33 50 -68 61 -182 61 -81 0 -98
3 -102 16 -4 13 -14 58 -21 91 -1 3 -5 28 -9 55 -10 62 -31 114 -54 131 -14
11 -207 13 -1033 14 l-1016 0 -22 -24z"/>
</g>
</svg>
